<svg width="72" height="40" viewBox="0 0 72 40" fill="none" xmlns="http://www.w3.org/2000/svg">
<rect width="72" height="40" rx="10" fill="#F5ECE3"/>
<path d="M45.7434 20.7434H57.3302L53.3426 24.7311C53.0523 25.0214 53.0523 25.4922 53.3424 25.7823C53.6327 26.0726 54.1036 26.0726 54.3939 25.7823L59.6504 20.5256C59.685 20.491 59.7158 20.4529 59.743 20.4124C59.7554 20.3936 59.7642 20.3734 59.7749 20.3539C59.7872 20.3308 59.8013 20.3089 59.8112 20.2846C59.8218 20.2595 59.8277 20.2334 59.8352 20.2074C59.8413 20.1868 59.8493 20.1671 59.8536 20.1459C59.8632 20.0976 59.8682 20.0489 59.8682 20L59.8681 19.9983C59.8679 19.9502 59.863 19.9019 59.8536 19.8545C59.8491 19.8322 59.8407 19.8116 59.8342 19.7896C59.827 19.7649 59.8214 19.7398 59.8114 19.7158C59.8006 19.69 59.7861 19.6666 59.7727 19.6422C59.7627 19.624 59.7547 19.6054 59.7432 19.588C59.716 19.5469 59.6848 19.5086 59.6501 19.4739L54.3938 14.2178C54.1035 13.9274 53.6327 13.9274 53.3424 14.2176C53.0521 14.5079 53.0521 14.9786 53.3424 15.2691L57.3301 19.2566H45.7434C45.3329 19.2566 45 19.5895 45 20C45 20.4106 45.3329 20.7434 45.7434 20.7434Z" fill="#AC8F78"/>
<path d="M26.1248 20.7434H14.5379L18.5256 24.7311C18.8159 25.0214 18.8159 25.4922 18.5258 25.7823C18.2355 26.0726 17.7645 26.0726 17.4742 25.7823L12.2177 20.5256C12.1832 20.491 12.1523 20.4529 12.1252 20.4124C12.1127 20.3936 12.104 20.3734 12.0932 20.3539C12.0809 20.3308 12.0668 20.3089 12.057 20.2846C12.0464 20.2595 12.0404 20.2334 12.033 20.2074C12.0269 20.1868 12.0189 20.1671 12.0146 20.1459C12.0049 20.0976 11.9999 20.0489 11.9999 20L12.0001 19.9983C12.0003 19.9502 12.0051 19.9019 12.0146 19.8545C12.0191 19.8322 12.0274 19.8116 12.0339 19.7896C12.0412 19.7649 12.0468 19.7398 12.0568 19.7158C12.0676 19.69 12.0821 19.6666 12.0954 19.6422C12.1055 19.624 12.1135 19.6054 12.125 19.588C12.1521 19.5469 12.1834 19.5086 12.2181 19.4739L17.4744 14.2178C17.7647 13.9274 18.2355 13.9274 18.5258 14.2176C18.8161 14.5079 18.8161 14.9786 18.5258 15.2691L14.5381 19.2566H26.1248C26.5353 19.2566 26.8682 19.5895 26.8682 20C26.8682 20.4106 26.5353 20.7434 26.1248 20.7434Z" fill="#AC8F78"/>
</svg>
