<svg width="11" height="13" viewBox="0 0 11 13" fill="none" xmlns="http://www.w3.org/2000/svg">
<path d="M4.57579 0.61951L4.57579 10.2752L1.25274 6.95215C1.01082 6.71023 0.618516 6.71023 0.376752 6.95199C0.134833 7.19391 0.134833 7.58637 0.376752 7.82829L4.75731 12.2087C4.78612 12.2375 4.81787 12.2632 4.85163 12.2858C4.86727 12.2962 4.88415 12.3035 4.90042 12.3125C4.91962 12.3227 4.9379 12.3345 4.95819 12.3427C4.97909 12.3515 5.00078 12.3564 5.02246 12.3626C5.03965 12.3677 5.05607 12.3744 5.07372 12.378C5.11399 12.386 5.15457 12.3902 5.1953 12.3902L5.1967 12.3901C5.23681 12.3899 5.27708 12.3859 5.31657 12.378C5.33516 12.3743 5.35235 12.3673 5.37062 12.3619C5.39122 12.3558 5.41213 12.3512 5.43211 12.3428C5.45364 12.3338 5.47315 12.3218 5.49344 12.3106C5.50862 12.3022 5.52411 12.2956 5.53867 12.286C5.57289 12.2634 5.6048 12.2373 5.63376 12.2084L10.0139 7.82813C10.2558 7.58621 10.2558 7.19391 10.014 6.95199C9.77209 6.71007 9.37979 6.71007 9.13771 6.95199L5.81481 10.275L5.81481 0.61951C5.81481 0.277386 5.53743 -2.03603e-07 5.1953 -2.18557e-07C4.85318 -2.33512e-07 4.57579 0.277385 4.57579 0.61951Z" fill="black"/>
</svg>
