<svg width="15" height="16" viewBox="0 0 15 16" fill="none" xmlns="http://www.w3.org/2000/svg">
<path d="M11.9975 3.2746H10.5499C10.4777 2.45197 10.0872 1.68543 9.45564 1.12678C8.82409 0.568129 7.9976 0.258107 7.13983 0.258107C6.28206 0.258107 5.45556 0.568129 4.82402 1.12678C4.19247 1.68543 3.80193 2.45197 3.72973 3.2746H2.28214C1.74533 3.2746 1.23051 3.47984 0.850933 3.84516C0.471353 4.21049 0.258107 4.70598 0.258107 5.22263V13.794C0.258107 14.3106 0.471353 14.8061 0.850933 15.1714C1.23051 15.5367 1.74533 15.742 2.28214 15.742H11.9975C12.5343 15.742 13.0491 15.5367 13.4287 15.1714C13.8083 14.8061 14.0215 14.3106 14.0215 13.794V5.22263C14.0215 4.70598 13.8083 4.21049 13.4287 3.84516C13.0491 3.47984 12.5343 3.2746 11.9975 3.2746ZM7.13983 1.03437C7.78318 1.03629 8.40341 1.26548 8.88278 1.67845C9.36216 2.09141 9.66731 2.6594 9.74031 3.2746H4.53935C4.61235 2.6594 4.9175 2.09141 5.39687 1.67845C5.87625 1.26548 6.49647 1.03629 7.13983 1.03437ZM13.2119 13.794C13.2119 14.1039 13.084 14.4012 12.8562 14.6204C12.6285 14.8396 12.3196 14.9628 11.9975 14.9628H2.28214C1.96006 14.9628 1.65116 14.8396 1.42342 14.6204C1.19567 14.4012 1.06772 14.1039 1.06772 13.794V5.22263C1.06772 4.91264 1.19567 4.61534 1.42342 4.39615C1.65116 4.17695 1.96006 4.05381 2.28214 4.05381H11.9975C12.3196 4.05381 12.6285 4.17695 12.8562 4.39615C13.084 4.61534 13.2119 4.91264 13.2119 5.22263V13.794Z" fill="#555555"/>
<path fill-rule="evenodd" clip-rule="evenodd" d="M10.7781 3.01649H11.9975C12.5996 3.01649 13.179 3.24661 13.6076 3.65918C14.0366 4.07208 14.2796 4.63424 14.2796 5.22258V13.7939C14.2796 14.3823 14.0366 14.9444 13.6076 15.3573C13.179 15.7699 12.5996 16 11.9975 16H2.2821C1.67997 16 1.1006 15.7699 0.671936 15.3573C0.242932 14.9444 0 14.3823 0 13.7939V5.22258C0 4.63424 0.242932 4.07208 0.671936 3.65918C1.1006 3.24661 1.67997 3.01649 2.2821 3.01649H3.50151C3.62777 2.21688 4.03348 1.48145 4.65299 0.933445C5.33261 0.332271 6.22023 0 7.13979 0C8.05934 0 8.94696 0.332271 9.62658 0.933445C10.2461 1.48145 10.6518 2.21688 10.7781 3.01649ZM10.5499 3.2746H11.9975C12.5343 3.2746 13.0491 3.47984 13.4287 3.84516C13.8083 4.21049 14.0215 4.70598 14.0215 5.22263V13.794C14.0215 14.3106 13.8083 14.8061 13.4287 15.1714C13.0491 15.5367 12.5343 15.742 11.9975 15.742H2.28214C1.74533 15.742 1.23051 15.5367 0.850933 15.1714C0.471353 14.8061 0.258107 14.3106 0.258107 13.794V5.22263C0.258107 4.70598 0.471353 4.21049 0.850933 3.84516C1.23051 3.47984 1.74533 3.2746 2.28214 3.2746H3.72973C3.80193 2.45197 4.19247 1.68543 4.82402 1.12678C5.45556 0.568129 6.28206 0.258107 7.13983 0.258107C7.9976 0.258107 8.82409 0.568129 9.45564 1.12678C10.0872 1.68543 10.4777 2.45197 10.5499 3.2746ZM8.71431 1.87392C8.28262 1.50203 7.72244 1.29431 7.13979 1.29239C6.55713 1.29431 5.99695 1.50203 5.56526 1.87392C5.21028 2.17973 4.9627 2.5787 4.84969 3.01649H9.42989C9.31687 2.5787 9.06929 2.17973 8.71431 1.87392ZM9.69548 3.01649C9.5774 2.50169 9.29431 2.03296 8.88278 1.67845C8.40341 1.26548 7.78318 1.03629 7.13983 1.03437C6.49647 1.03629 5.87625 1.26548 5.39687 1.67845C4.98534 2.03296 4.70217 2.50169 4.58409 3.01649C4.56462 3.10136 4.54968 3.18753 4.53935 3.2746H9.74031C9.72998 3.18753 9.71495 3.10136 9.69548 3.01649ZM12.6772 14.4344C12.8556 14.2628 12.9538 14.0322 12.9538 13.7939V5.22258C12.9538 4.98429 12.8556 4.75367 12.6772 4.58204C12.4986 4.41009 12.2542 4.31183 11.9975 4.31183H2.2821C2.02534 4.31183 1.78099 4.41009 1.60233 4.58204C1.42401 4.75367 1.32574 4.98429 1.32574 5.22258V13.7939C1.32574 14.0322 1.42401 14.2628 1.60233 14.4344C1.78099 14.6064 2.02534 14.7047 2.2821 14.7047H11.9975C12.2542 14.7047 12.4986 14.6064 12.6772 14.4344ZM12.8562 14.6204C13.084 14.4012 13.2119 14.1039 13.2119 13.794V5.22263C13.2119 4.91264 13.084 4.61534 12.8562 4.39615C12.6285 4.17695 12.3196 4.05381 11.9975 4.05381H2.28214C1.96006 4.05381 1.65116 4.17695 1.42342 4.39615C1.19567 4.61534 1.06772 4.91264 1.06772 5.22263V13.794C1.06772 14.1039 1.19567 14.4012 1.42342 14.6204C1.65116 14.8396 1.96006 14.9628 2.28214 14.9628H11.9975C12.3196 14.9628 12.6285 14.8396 12.8562 14.6204Z" fill="#555555"/>
</svg>
