<svg width="180" height="16" viewBox="0 0 180 16" fill="none" xmlns="http://www.w3.org/2000/svg">
<path d="M0 0.347213H7.65743C10.7553 0.347213 12.8513 1.29907 12.8513 4.17858C12.8513 5.73707 12.0994 6.73282 10.6419 7.40531C12.6476 7.94609 13.6263 9.40081 13.6263 11.3225C13.6263 14.4634 10.8246 15.8044 7.88425 15.8044H0V0.347213ZM3.57039 6.60312H7.19958C8.47652 6.60312 9.38802 6.06234 9.38802 4.76326C9.38802 3.31253 8.20349 2.99325 6.93075 2.99325H3.57039V6.60312ZM3.57039 13.1703H7.4054C8.79575 13.1703 10.0496 12.7373 10.0496 11.1349C10.0496 9.53252 9.03098 8.9199 7.47471 8.9199H3.57039V13.1703Z" fill="#555555"/>
<path d="M31.033 15.9999C29.3674 15.9976 27.74 15.5259 26.3566 14.6446C24.9733 13.7633 23.8961 12.512 23.2613 11.049C22.6265 9.58592 22.4627 7.97685 22.7905 6.42531C23.1183 4.87377 23.9231 3.44946 25.103 2.33256C26.283 1.21567 27.785 0.45635 29.4192 0.15067C31.0534 -0.15501 32.7463 0.00667727 34.2837 0.615281C35.8212 1.22388 37.1341 2.25206 38.0564 3.56975C38.9788 4.88743 39.4691 6.43543 39.4654 8.01793C39.4654 9.06866 39.247 10.1091 38.8229 11.0794C38.3987 12.0498 37.7771 12.9311 36.9937 13.6727C36.2102 14.4143 35.2804 15.0016 34.2575 15.401C33.2346 15.8003 32.1388 16.0039 31.033 15.9999ZM26.0659 8.01793C26.0524 8.64308 26.1702 9.26452 26.4127 9.84583C26.6551 10.4272 27.0172 10.9567 27.4777 11.4033C27.9382 11.85 28.4879 12.2049 29.0946 12.4471C29.7013 12.6894 30.3528 12.8142 31.0109 12.8142C31.669 12.8142 32.3205 12.6894 32.9272 12.4471C33.5339 12.2049 34.0836 11.85 34.5441 11.4033C35.0047 10.9567 35.3667 10.4272 35.6092 9.84583C35.8516 9.26452 35.9695 8.64308 35.9559 8.01793C35.9559 5.44173 33.7444 3.27661 31.033 3.27661C29.718 3.2917 28.4616 3.79566 27.5331 4.68048C26.6046 5.56529 26.0779 6.76053 26.0659 8.00995V8.01793Z" fill="#555555"/>
<path d="M49.83 15.6966V0.281362H53.3458V12.8391H61.6858V15.6966H49.83Z" fill="#555555"/>
<path d="M74.3922 3.20477H69.2193V0.369163H83.0976V3.22672H77.9688V15.7984H74.3985L74.3922 3.20477Z" fill="#555555"/>
<path d="M91.0029 15.8044L98.3852 0.369163H101.985L109.254 15.8044H105.791L104.196 12.3841H95.9804L94.2603 15.8044H91.0029ZM100.231 3.26863L97.501 9.25514H102.901L100.254 3.26863H100.231Z" fill="#555555"/>
<path d="M122.195 9.63429V12.9249H131.378V15.7824H118.732V0.281362H130.603V3.13892H122.202V6.62507H129.63V9.63429H122.195Z" fill="#555555"/>
<path d="M150.128 15.8044H146.096L140.81 0.347213H144.496L148.125 11.2147H148.169L151.846 0.347213H155.539L150.128 15.8044Z" fill="#555555"/>
<path d="M161.749 15.8044L169.131 0.367167H172.731L180 15.8044H176.537L174.949 12.3841H166.716L165.006 15.8044H161.749ZM170.977 3.26863L168.247 9.25514H173.647L171.001 3.26863H170.977Z" fill="#555555"/>
</svg>
