<svg width="17" height="13" viewBox="0 0 17 13" fill="none" xmlns="http://www.w3.org/2000/svg">
<path d="M16.2077 0.00426181H0.552264C0.510436 -0.0014206 0.468032 -0.0014206 0.426204 0.00426181L0.324155 0.046282C0.291498 0.062012 0.261192 0.0822158 0.234112 0.106311C0.199961 0.129535 0.16959 0.15788 0.144069 0.190351L0.108052 0.226368C0.105792 0.244306 0.105792 0.262456 0.108052 0.280394C0.0884438 0.316794 0.0723628 0.354986 0.0600286 0.394448C0.0348389 0.442241 0.0147198 0.492539 0 0.54452V11.4097C0 11.5689 0.0632443 11.7216 0.17582 11.8342C0.288396 11.9468 0.441081 12.01 0.600287 12.01H16.2077C16.367 12.01 16.5196 11.9468 16.6322 11.8342C16.7448 11.7216 16.808 11.5689 16.808 11.4097V0.604549C16.808 0.445343 16.7448 0.292658 16.6322 0.180082C16.5196 0.0675063 16.367 0.00426181 16.2077 0.00426181ZM8.40402 5.29279L2.5212 1.20484H15.0612L8.40402 5.29279ZM1.20057 10.8094V1.7511L8.06185 6.49937C8.09663 6.51976 8.13272 6.53781 8.1699 6.55339H8.21793C8.27693 6.58054 8.33965 6.59875 8.40402 6.60742C8.48939 6.60514 8.5733 6.58468 8.65013 6.54739H8.69215L15.6075 2.27935V10.8094H1.20057Z" fill="#555555"/>
</svg>
