<svg width="36" height="36" viewBox="0 0 36 36" fill="none" xmlns="http://www.w3.org/2000/svg">
<circle cx="18" cy="18" r="18" fill="#F5ECE3"/>
<path d="M18 14.2549C15.9678 14.2549 14.2839 15.9097 14.2839 17.971C14.2839 20.0323 15.9388 21.6872 18 21.6872C20.0613 21.6872 21.7162 20.0033 21.7162 17.971C21.7162 15.9388 20.0323 14.2549 18 14.2549ZM18 20.3517C16.6936 20.3517 15.6194 19.2775 15.6194 17.971C15.6194 16.6646 16.6936 15.5904 18 15.5904C19.3065 15.5904 20.3807 16.6646 20.3807 17.971C20.3807 19.2775 19.3065 20.3517 18 20.3517Z" fill="#AC8F78"/>
<path d="M21.8613 15.0097C22.3263 15.0097 22.7033 14.6328 22.7033 14.1678C22.7033 13.7028 22.3263 13.3258 21.8613 13.3258C21.3963 13.3258 21.0194 13.7028 21.0194 14.1678C21.0194 14.6328 21.3963 15.0097 21.8613 15.0097Z" fill="#AC8F78"/>
<path d="M24.0388 11.9904C23.2839 11.2065 22.2097 10.8 20.9904 10.8H15.0097C12.4839 10.8 10.8 12.4839 10.8 15.0097V20.9613C10.8 22.2097 11.2065 23.2839 12.0194 24.0678C12.8033 24.8226 13.8484 25.2 15.0388 25.2H20.9613C22.2097 25.2 23.2549 24.7936 24.0097 24.0678C24.7936 23.313 25.2 22.2388 25.2 20.9904V15.0097C25.2 13.7904 24.7936 12.7452 24.0388 11.9904ZM23.9226 20.9904C23.9226 21.8904 23.6033 22.6162 23.0807 23.1097C22.5581 23.6033 21.8323 23.8646 20.9613 23.8646H15.0388C14.1678 23.8646 13.442 23.6033 12.9194 23.1097C12.3968 22.5871 12.1355 21.8613 12.1355 20.9613V15.0097C12.1355 14.1388 12.3968 13.413 12.9194 12.8904C13.413 12.3968 14.1678 12.1355 15.0388 12.1355H21.0194C21.8904 12.1355 22.6162 12.3968 23.1388 12.9194C23.6323 13.442 23.9226 14.1678 23.9226 15.0097V20.9904Z" fill="#AC8F78"/>
</svg>
