<svg width="14" height="16" viewBox="0 0 14 16" fill="none" xmlns="http://www.w3.org/2000/svg">
<path d="M11.8116 8.11075C11.7543 8.05377 11.6862 8.00866 11.6114 7.97798C11.5366 7.9473 11.4565 7.93166 11.3756 7.93194C11.2948 7.93223 11.2148 7.94844 11.1402 7.97964C11.0656 8.01085 10.9978 8.05644 10.9409 8.11382C10.8839 8.1712 10.8388 8.23924 10.8081 8.31405C10.7774 8.38886 10.7618 8.46899 10.7621 8.54984C10.7624 8.6307 10.7786 8.71071 10.8098 8.78531C10.841 8.8599 10.8866 8.92762 10.9439 8.98459C11.4647 9.49979 11.878 10.1132 12.16 10.7892C12.4421 11.4653 12.5872 12.1905 12.587 12.9231C12.587 13.6738 10.427 14.7692 7.04856 14.7692C3.6701 14.7692 1.5101 13.6738 1.5101 12.9231C1.50913 12.1954 1.65156 11.4746 1.92927 10.802C2.20697 10.1294 2.6145 9.51809 3.12857 9.00305C3.24318 8.88775 3.30751 8.73178 3.30751 8.56921C3.30751 8.40663 3.24318 8.25066 3.12857 8.13536C3.01327 8.02074 2.8573 7.95641 2.69472 7.95641C2.53214 7.95641 2.37617 8.02074 2.26087 8.13536C1.63017 8.76254 1.13025 9.50869 0.790098 10.3305C0.449949 11.1524 0.276339 12.0336 0.279335 12.9231C0.279335 14.9231 3.76857 16 7.04856 16C10.3286 16 13.8178 14.9231 13.8178 12.9231C13.8202 12.0278 13.6439 11.1411 13.2995 10.3148C12.955 9.48851 12.4492 8.7392 11.8116 8.11075Z" fill="#555555"/>
<path d="M7.04854 8.61539C7.90052 8.61539 8.73337 8.36274 9.44176 7.88941C10.1502 7.41607 10.7023 6.7433 11.0283 5.95618C11.3544 5.16905 11.4397 4.30291 11.2735 3.4673C11.1072 2.63169 10.697 1.86414 10.0945 1.2617C9.49209 0.659254 8.72454 0.248986 7.88893 0.082773C7.05332 -0.0834402 6.18718 0.00186646 5.40005 0.327905C4.61293 0.653944 3.94016 1.20607 3.46682 1.91447C2.99349 2.62286 2.74084 3.45571 2.74084 4.30769C2.74084 5.45016 3.19469 6.54584 4.00254 7.35369C4.81039 8.16154 5.90607 8.61539 7.04854 8.61539ZM7.04854 1.23077C7.65709 1.23077 8.25199 1.41123 8.75798 1.74933C9.26398 2.08742 9.65836 2.56797 9.89124 3.13021C10.1241 3.69244 10.1851 4.31111 10.0663 4.90797C9.94761 5.50484 9.65456 6.05309 9.22425 6.48341C8.79393 6.91372 8.24568 7.20677 7.64881 7.32549C7.05195 7.44422 6.43328 7.38328 5.87105 7.1504C5.30882 6.91751 4.82827 6.52314 4.49017 6.01714C4.15207 5.51114 3.97161 4.91625 3.97161 4.30769C3.97161 3.49164 4.29579 2.70902 4.87282 2.13198C5.44986 1.55495 6.23249 1.23077 7.04854 1.23077Z" fill="#555555"/>
</svg>
