<svg width="44" height="12" viewBox="0 0 44 12" fill="none" xmlns="http://www.w3.org/2000/svg">
<path d="M6.70117 8.22461C6.70117 8.81706 6.55762 9.33203 6.27051 9.76953C5.9834 10.207 5.56413 10.5443 5.0127 10.7812C4.46582 11.0182 3.80046 11.1367 3.0166 11.1367C2.67025 11.1367 2.33073 11.1139 1.99805 11.0684C1.66992 11.0228 1.35319 10.9567 1.04785 10.8701C0.74707 10.779 0.459961 10.6673 0.186523 10.5352V8.56641C0.660482 8.77604 1.15267 8.96517 1.66309 9.13379C2.1735 9.30241 2.67936 9.38672 3.18066 9.38672C3.52702 9.38672 3.80501 9.34115 4.01465 9.25C4.22884 9.15885 4.38379 9.03353 4.47949 8.87402C4.5752 8.71452 4.62305 8.53223 4.62305 8.32715C4.62305 8.0765 4.53874 7.8623 4.37012 7.68457C4.2015 7.50684 3.96908 7.34049 3.67285 7.18555C3.38118 7.0306 3.05078 6.86426 2.68164 6.68652C2.44922 6.57715 2.19629 6.44499 1.92285 6.29004C1.64941 6.13053 1.38965 5.93685 1.14355 5.70898C0.897461 5.48112 0.694661 5.2054 0.535156 4.88184C0.380208 4.55371 0.302734 4.16178 0.302734 3.70605C0.302734 3.10905 0.439453 2.59863 0.712891 2.1748C0.986328 1.75098 1.37598 1.42741 1.88184 1.2041C2.39225 0.976237 2.99382 0.862305 3.68652 0.862305C4.20605 0.862305 4.70052 0.923828 5.16992 1.04688C5.64388 1.16536 6.13835 1.33854 6.65332 1.56641L5.96973 3.21387C5.50944 3.02702 5.09701 2.88346 4.73242 2.7832C4.36784 2.67839 3.99642 2.62598 3.61816 2.62598C3.35384 2.62598 3.12826 2.66927 2.94141 2.75586C2.75456 2.83789 2.61328 2.95638 2.51758 3.11133C2.42188 3.26172 2.37402 3.43717 2.37402 3.6377C2.37402 3.87467 2.44238 4.0752 2.5791 4.23926C2.72038 4.39876 2.93001 4.55371 3.20801 4.7041C3.49056 4.85449 3.84147 5.02995 4.26074 5.23047C4.77116 5.47201 5.20638 5.72493 5.56641 5.98926C5.93099 6.24902 6.21126 6.55664 6.40723 6.91211C6.60319 7.26302 6.70117 7.70052 6.70117 8.22461ZM11.5 3.21387C12.2064 3.21387 12.8148 3.35059 13.3252 3.62402C13.8356 3.8929 14.2298 4.28483 14.5078 4.7998C14.7858 5.31478 14.9248 5.94368 14.9248 6.68652V7.69824H9.99609C10.0189 8.28613 10.1943 8.7487 10.5225 9.08594C10.8551 9.41862 11.3154 9.58496 11.9033 9.58496C12.391 9.58496 12.8376 9.53483 13.2432 9.43457C13.6488 9.33431 14.0658 9.18392 14.4941 8.9834V10.5967C14.1159 10.7835 13.7194 10.9202 13.3047 11.0068C12.8945 11.0934 12.3955 11.1367 11.8076 11.1367C11.042 11.1367 10.363 10.9954 9.77051 10.7129C9.18262 10.4303 8.72005 9.99967 8.38281 9.4209C8.05013 8.84212 7.88379 8.11296 7.88379 7.2334C7.88379 6.34017 8.03418 5.59733 8.33496 5.00488C8.6403 4.40788 9.06413 3.96126 9.60645 3.66504C10.1488 3.36426 10.7799 3.21387 11.5 3.21387ZM11.5137 4.69727C11.1081 4.69727 10.7708 4.82715 10.502 5.08691C10.2376 5.34668 10.085 5.75456 10.0439 6.31055H12.9697C12.9652 6.00065 12.9082 5.72493 12.7988 5.4834C12.694 5.24186 12.5345 5.05046 12.3203 4.90918C12.1107 4.7679 11.8418 4.69727 11.5137 4.69727ZM19.7715 3.21387C20.4779 3.21387 21.0863 3.35059 21.5967 3.62402C22.1071 3.8929 22.5013 4.28483 22.7793 4.7998C23.0573 5.31478 23.1963 5.94368 23.1963 6.68652V7.69824H18.2676C18.2904 8.28613 18.4658 8.7487 18.7939 9.08594C19.1266 9.41862 19.5869 9.58496 20.1748 9.58496C20.6624 9.58496 21.109 9.53483 21.5146 9.43457C21.9202 9.33431 22.3372 9.18392 22.7656 8.9834V10.5967C22.3874 10.7835 21.9909 10.9202 21.5762 11.0068C21.166 11.0934 20.667 11.1367 20.0791 11.1367C19.3135 11.1367 18.6344 10.9954 18.042 10.7129C17.4541 10.4303 16.9915 9.99967 16.6543 9.4209C16.3216 8.84212 16.1553 8.11296 16.1553 7.2334C16.1553 6.34017 16.3057 5.59733 16.6064 5.00488C16.9118 4.40788 17.3356 3.96126 17.8779 3.66504C18.4202 3.36426 19.0514 3.21387 19.7715 3.21387ZM19.7852 4.69727C19.3796 4.69727 19.0423 4.82715 18.7734 5.08691C18.5091 5.34668 18.3564 5.75456 18.3154 6.31055H21.2412C21.2367 6.00065 21.1797 5.72493 21.0703 5.4834C20.9655 5.24186 20.806 5.05046 20.5918 4.90918C20.3822 4.7679 20.1133 4.69727 19.7852 4.69727ZM31.6592 3.2002C32.6846 3.2002 33.4707 3.4235 34.0176 3.87012C34.5645 4.31673 34.8379 4.99577 34.8379 5.90723V11H33.3818L32.9785 9.96094H32.9238C32.7051 10.2344 32.4818 10.4577 32.2539 10.6309C32.026 10.804 31.764 10.9316 31.4678 11.0137C31.1715 11.0957 30.8115 11.1367 30.3877 11.1367C29.9365 11.1367 29.5309 11.0501 29.1709 10.877C28.8154 10.7038 28.5352 10.4395 28.3301 10.084C28.125 9.72396 28.0225 9.26823 28.0225 8.7168C28.0225 7.9056 28.3073 7.30859 28.877 6.92578C29.4466 6.53841 30.3011 6.32422 31.4404 6.2832L32.7666 6.24219V5.90723C32.7666 5.50618 32.6618 5.21224 32.4521 5.02539C32.2425 4.83854 31.9508 4.74512 31.5771 4.74512C31.208 4.74512 30.8457 4.79753 30.4902 4.90234C30.1348 5.00716 29.7793 5.13932 29.4238 5.29883L28.7334 3.89062C29.139 3.67643 29.5924 3.50781 30.0938 3.38477C30.5996 3.26172 31.1214 3.2002 31.6592 3.2002ZM32.7666 7.45898L31.96 7.48633C31.2855 7.50456 30.8161 7.62533 30.5518 7.84863C30.292 8.07194 30.1621 8.36589 30.1621 8.73047C30.1621 9.04948 30.2555 9.27734 30.4424 9.41406C30.6292 9.54622 30.873 9.6123 31.1738 9.6123C31.6204 9.6123 31.9964 9.48014 32.3018 9.21582C32.6117 8.9515 32.7666 8.57552 32.7666 8.08789V7.45898ZM39.0762 11H36.9912V0.363281H39.0762V11ZM43.3555 11H41.2705V0.363281H43.3555V11Z" fill="#FEFCFC"/>
</svg>
