<svg width="16" height="18" viewBox="0 0 16 18" fill="none" xmlns="http://www.w3.org/2000/svg">
<path d="M12.9739 9.1246C12.9094 9.06051 12.8328 9.00975 12.7486 8.97524C12.6645 8.94073 12.5743 8.92313 12.4834 8.92345C12.3924 8.92377 12.3024 8.94201 12.2185 8.97711C12.1346 9.01222 12.0584 9.06351 11.9943 9.12806C11.9302 9.19261 11.8794 9.26916 11.8449 9.35332C11.8104 9.43749 11.7928 9.52762 11.7931 9.61859C11.7935 9.70956 11.8117 9.79957 11.8468 9.88349C11.8819 9.9674 11.9332 10.0436 11.9978 10.1077C12.5836 10.6873 13.0486 11.3773 13.3659 12.1379C13.6832 12.8984 13.8464 13.7144 13.8462 14.5385C13.8462 15.3831 11.4162 16.6154 7.61544 16.6154C3.81466 16.6154 1.38466 15.3831 1.38466 14.5385C1.38356 13.7198 1.5438 12.909 1.85622 12.1523C2.16864 11.3956 2.62711 10.7079 3.20543 10.1285C3.33438 9.99874 3.40675 9.82327 3.40675 9.64037C3.40675 9.45747 3.33438 9.28201 3.20543 9.1523C3.07572 9.02335 2.90025 8.95098 2.71735 8.95098C2.53446 8.95098 2.35899 9.02335 2.22928 9.1523C1.51973 9.85787 0.957321 10.6973 0.574652 11.6219C0.191984 12.5465 -0.00332801 13.5378 4.29009e-05 14.5385C4.29009e-05 16.7885 3.92543 18 7.61544 18C11.3054 18 15.2308 16.7885 15.2308 14.5385C15.2335 13.5313 15.0353 12.5338 14.6477 11.6042C14.2602 10.6746 13.6912 9.83162 12.9739 9.1246Z" fill="#AC8F78"/>
<path d="M7.61541 9.69232C8.57389 9.69232 9.51084 9.4081 10.3078 8.8756C11.1047 8.34309 11.7259 7.58623 12.0927 6.70071C12.4595 5.81519 12.5554 4.84079 12.3685 3.90072C12.1815 2.96066 11.7199 2.09716 11.0422 1.41941C10.3644 0.741662 9.50091 0.28011 8.56085 0.0931198C7.62078 -0.0938704 6.64638 0.00209977 5.76086 0.368894C4.87534 0.735689 4.11847 1.35683 3.58597 2.15378C3.05347 2.95073 2.76925 3.88768 2.76925 4.84616C2.76925 6.13144 3.27982 7.36408 4.18865 8.27292C5.09749 9.18175 6.33012 9.69232 7.61541 9.69232ZM7.61541 1.38462C8.30004 1.38462 8.96929 1.58764 9.53854 1.96799C10.1078 2.34835 10.5515 2.88897 10.8135 3.52149C11.0755 4.154 11.144 4.85 11.0104 5.52148C10.8769 6.19295 10.5472 6.80974 10.0631 7.29384C9.57898 7.77795 8.96219 8.10763 8.29072 8.24119C7.61925 8.37476 6.92325 8.30621 6.29073 8.04421C5.65822 7.78222 5.1176 7.33854 4.73724 6.76929C4.35688 6.20005 4.15386 5.53079 4.15386 4.84616C4.15386 3.9281 4.51856 3.04765 5.16773 2.39848C5.81689 1.74932 6.69735 1.38462 7.61541 1.38462Z" fill="#AC8F78"/>
</svg>
