<svg width="36" height="36" viewBox="0 0 36 36" fill="none" xmlns="http://www.w3.org/2000/svg">
<circle cx="18" cy="18" r="18" fill="#F5ECE3"/>
<path d="M24.8142 13.8784C24.3321 14.0956 23.8133 14.2421 23.2689 14.3076C23.8247 13.9704 24.2509 13.4363 24.4519 12.7991C23.932 13.1117 23.3565 13.3386 22.7434 13.4611C22.2528 12.9313 21.5534 12.6 20.7796 12.6C19.2938 12.6 18.0892 13.8207 18.0892 15.3265C18.0892 15.5399 18.1129 15.7479 18.159 15.9478C15.9228 15.834 13.9401 14.7487 12.6131 13.0991C12.3814 13.5015 12.2489 13.9699 12.2489 14.47C12.2489 15.4158 12.7238 16.2505 13.4458 16.7393C13.0049 16.725 12.5899 16.6023 12.227 16.3981C12.2268 16.4094 12.2268 16.421 12.2268 16.4326C12.2268 17.7534 13.1543 18.8551 14.3852 19.106C14.1595 19.1681 13.9217 19.2015 13.6763 19.2015C13.5027 19.2015 13.3342 19.1845 13.17 19.1524C13.5126 20.2356 14.5061 21.0241 15.6832 21.046C14.7624 21.7773 13.6026 22.2133 12.3418 22.2133C12.1248 22.2133 11.9105 22.2003 11.7 22.1749C12.891 22.9489 14.3051 23.4 15.8243 23.4C20.7734 23.4 23.4795 19.2455 23.4795 15.6424C23.4795 15.5243 23.4771 15.4064 23.472 15.2893C23.9975 14.9057 24.4538 14.4252 24.8142 13.8784Z" fill="#AC8F78"/>
</svg>
