<svg width="36" height="36" viewBox="0 0 36 36" fill="none" xmlns="http://www.w3.org/2000/svg">
<circle cx="18" cy="18" r="18" fill="#F5ECE3"/>
<path d="M25.7308 14.1103C25.8421 13.7587 25.7308 13.5 25.1955 13.5H23.4242C22.9731 13.5 22.7655 13.7222 22.6543 13.9697C22.6543 13.9697 21.7521 16.0256 20.4769 17.3587C20.0649 17.7441 19.8755 17.8678 19.6499 17.8678C19.5386 17.8678 19.3672 17.7441 19.3672 17.3925V14.1103C19.3672 13.6884 19.2409 13.5 18.868 13.5H16.0832C15.8005 13.5 15.6321 13.6969 15.6321 13.8797C15.6321 14.2791 16.2696 14.3719 16.3358 15.4969V17.9381C16.3358 18.4725 16.2335 18.5709 16.008 18.5709C15.4065 18.5709 13.9449 16.5066 13.0788 14.1441C12.9044 13.6856 12.733 13.5 12.2789 13.5H10.5075C10.0023 13.5 9.90002 13.7222 9.90002 13.9697C9.90002 14.4084 10.5015 16.5881 12.6999 19.4681C14.1645 21.4341 16.2275 22.5 18.1041 22.5C19.2319 22.5 19.3702 22.2638 19.3702 21.8559C19.3702 19.9772 19.268 19.8 19.8334 19.8C20.095 19.8 20.5461 19.9237 21.5987 20.8716C22.8016 21.9966 23.0001 22.5 23.6738 22.5H25.4451C25.9504 22.5 26.206 22.2638 26.0586 21.7969C25.7218 20.8153 23.4452 18.7959 23.343 18.6609C23.0813 18.3459 23.1565 18.2053 23.343 17.9241C23.346 17.9212 25.5083 15.075 25.7308 14.1103Z" fill="#AC8F78"/>
</svg>
