<svg width="18" height="18" viewBox="0 0 18 18" fill="none" xmlns="http://www.w3.org/2000/svg">
<path fill-rule="evenodd" clip-rule="evenodd" d="M15.3774 2.61581C13.6853 0.929854 11.4351 0.000977574 9.03756 0C4.09766 0 0.0770898 4.00103 0.0751616 8.91884C0.0744704 10.4909 0.487169 12.0254 1.27149 13.378L0 18L4.75109 16.7597C6.06012 17.4703 7.534 17.8448 9.034 17.8453H9.03763C9.03734 17.8453 9.03793 17.8453 9.03763 17.8453C13.977 17.8453 17.9979 13.8439 18 8.92598C18.0009 6.54265 17.0695 4.30169 15.3774 2.61581ZM9.0376 16.339H9.03458C7.69797 16.3384 6.38693 15.981 5.2432 15.3056L4.97123 15.1449L2.15186 15.8809L2.90442 13.1453L2.72729 12.8647C1.98164 11.6844 1.58782 10.3201 1.5884 8.91935C1.59 4.83186 4.93175 1.50644 9.04062 1.50644C11.0303 1.50706 12.9006 2.27923 14.307 3.68053C15.7134 5.08183 16.4875 6.94447 16.4867 8.92536C16.4851 13.0132 13.1434 16.339 9.0376 16.339Z" fill="#555555"/>
<path fill-rule="evenodd" clip-rule="evenodd" d="M13.1236 10.7866C12.8997 10.675 11.7987 10.136 11.5934 10.0615C11.3882 9.98715 11.2389 9.94997 11.0896 10.1731C10.9403 10.3961 10.5111 10.8982 10.3805 11.047C10.2499 11.1956 10.1192 11.2143 9.89534 11.1027C9.67142 10.9911 8.94985 10.7558 8.09451 9.99653C7.42875 9.40553 6.97935 8.67575 6.84867 8.45258C6.71806 8.22951 6.83477 8.10891 6.94689 7.99775C7.04763 7.89786 7.17085 7.73746 7.28283 7.6073C7.39477 7.47721 7.4321 7.38416 7.50675 7.23553C7.5814 7.08676 7.54411 6.9566 7.48809 6.84508C7.4321 6.73353 6.98426 5.63655 6.79766 5.19023C6.61583 4.75572 6.43124 4.81459 6.29376 4.80767C6.16334 4.80119 6.01385 4.79985 5.86458 4.79985C5.71531 4.79985 5.47265 4.85565 5.26743 5.07871C5.06218 5.30186 4.48362 5.84108 4.48362 6.93795C4.48362 8.03497 5.28606 9.09474 5.39804 9.24343C5.50998 9.39224 6.97713 11.6433 9.22354 12.6086C9.75782 12.8383 10.175 12.9754 10.5002 13.0781C11.0366 13.2478 11.5248 13.2238 11.9107 13.1664C12.3409 13.1024 13.2356 12.6273 13.4222 12.1068C13.6088 11.5861 13.6088 11.1398 13.5528 11.0469C13.4968 10.954 13.3475 10.8982 13.1236 10.7866Z" fill="#555555"/>
</svg>
