<svg width="36" height="36" viewBox="0 0 36 36" fill="none" xmlns="http://www.w3.org/2000/svg">
<circle cx="18" cy="18" r="18" fill="#F5ECE3"/>
<path d="M24.3705 15.0459C24.2111 14.4374 23.7415 13.9582 23.1452 13.7956C22.0642 13.5 17.7301 13.5 17.7301 13.5C17.7301 13.5 13.3959 13.5 12.3149 13.7956C11.7187 13.9582 11.249 14.4374 11.0896 15.0459C10.8 16.1488 10.8 18.4501 10.8 18.4501C10.8 18.4501 10.8 20.7513 11.0896 21.8541C11.249 22.4626 11.7187 22.9419 12.3149 23.1045C13.3959 23.4 17.7301 23.4 17.7301 23.4C17.7301 23.4 22.0642 23.4 23.1452 23.1045C23.7415 22.9419 24.2111 22.4626 24.3705 21.8541C24.66 20.7513 24.66 18.4501 24.66 18.4501C24.66 18.4501 24.66 16.1488 24.3705 15.0459ZM16.344 20.5715V16.3286L19.9449 18.4501L16.344 20.5715Z" fill="#AC8F78"/>
</svg>
